#!OML:ASF Y:\EmotionMaleHayes\Project 1\Capture day 1\Session 1\Male1.ASF
:FULLY-SPECIFIED
:DEGREES
49
root -1.04295 16.9452 0.129095 110.049 101.189 114.366
lowerback 13.5644 7.09945 9.35292
upperback 2.38593 10.9967 2.22968
thorax -3.68699 5.41097 -4.49154
lowerneck -25.5778 -5.42879 -2.25727
upperneck 28.0029 -7.51619 2.68483
head 14.0255 -2.96767 0.0302932
rclavicle -1.32738e-013 1.19271e-014
rhumerus -22.863 22.2876 -85.5272
rradius 94.282
rwrist -17.0552
rhand -28.9769 -24.9333
rfingers 7.12502
rthumb -2.32944 -54.9004
lclavicle -1.32738e-013 1.19271e-014
lhumerus -86.7569 -25.1024 94.1432
lradius 69.469
lwrist 13.2307
lhand -41.0297 -36.3692
lfingers 7.12502
lthumb -13.9603 -6.85793
rfemur 23.9966 -1.2682 26.0342
rtibia 28.0648
rfoot -14.0457 7.29159
rtoes 4.45975
lfemur -33.1485 5.82788 -4.96977
ltibia 41.614
lfoot -9.08914 10.5297
ltoes -7.07357
50
root -0.422201 16.9906 0.110641 113.742 101.542 118.098
lowerback 13.1476 7.82328 9.55412
upperback 2.0968 11.9093 1.74829
thorax -3.4988 5.85526 -5.13364
lowerneck -25.2365 -5.83437 -1.86718
upperneck 28.1493 -8.44415 3.22502
head 14.059 -3.23126 0.00954849
rclavicle 5.77966e-014 -1.59028e-014
rhumerus -22.6799 22.4857 -85.2934
rradius 96.2271
rwrist -18.474
rhand -28.5106 -24.5228
rfingers 7.12502
rthumb -1.87908 -54.4943
lclavicle 5.77966e-014 -1.59028e-014
lhumerus -88.5479 -25.7969 92.0773
lradius 70.4127
lwrist 12.9243
lhand -40.5112 -35.7869
lfingers 7.12502
lthumb -13.4606 -6.24184
rfemur 25.8502 0.503018 26.4792
rtibia 27.9485
rfoot -14.7238 4.51538
rtoes 2.21014
lfemur -31.26 6.07874 -4.55171
ltibia 33.5235
lfoot -8.9914 10.3935
ltoes -9.51771
51
root 0.197507 17.0294 0.0980032 117.214 102.139 121.614
lowerback 12.7001 8.32649 9.6094
upperback 1.84616 12.531 1.60955
thorax -3.38787 6.15735 -5.30347
lowerneck -24.8712 -6.03731 -1.88404
upperneck 28.3513 -8.82954 3.52548
head 14.1032 -3.34445 0.0665581
rclavicle 6.24681e-014 -5.96354e-015
rhumerus -22.6223 23.4652 -85.0744
rradius 98.0046
rwrist -19.5974
rhand -28.0718 -23.9178
rfingers 7.12502
rthumb -1.45528 -53.8926
lclavicle 6.24681e-014 -5.96354e-015
lhumerus -89.9602 -25.3623 89.8102
lradius 71.1405
lwrist 12.1608
lhand -40.1247 -35.2741
lfingers 7.12502
lthumb -13.088 -5.70479
rfemur 27.4225 2.69509 27.5747
rtibia 28.6351
rfoot -15.3281 2.1953
rtoes 1.00068
lfemur -29.1457 6.25308 -3.79049
ltibia 25.2682
lfoot -8.43394 10.2821
ltoes -8.88605
52
root 0.807714 17.059 0.0899718 120.376 103.061 124.801
lowerback 12.4278 8.80361 9.90263
upperback 1.49882 13.1774 1.47288
thorax -3.41609 6.45653 -5.62586
lowerneck -24.5374 -6.21516 -1.94237
upperneck 28.6667 -9.2022 3.93552
head 14.2149 -3.43313 0.176026
rclavicle -4.2192e-014 -6.08281e-014
rhumerus -22.9565 24.1338 -85.2702
rradius 99.7058
rwrist -19.9626
rhand -27.4843 -23.2661
rfingers 7.12502
rthumb -0.887887 -53.244
lclavicle -4.2192e-014 -6.08281e-014
lhumerus -91.1478 -24.9535 87.3905
lradius 71.6834
lwrist 11.2231
lhand -39.8517 -34.8308
lfingers 7.12502
lthumb -12.8248 -5.24473
rfemur 28.5086 4.81796 28.9789
rtibia 30.1982
rfoot -15.5911 0.748379
rtoes 1.50637
lfemur -27.1183 6.57805 -2.71777
ltibia 17.9903
lfoot -9.49834 10.0228
ltoes -7.76174
53
root 1.41055 17.0691 0.088296 120.969 104.842 125.563
lowerback 12.2595 9.11112 11.0577
upperback 1.29681 13.7484 1.71353
thorax -3.24984 6.73003 -5.98015
lowerneck -24.4224 -6.28345 -2.03764
upperneck 28.8737 -9.39745 4.32571
head 14.3223 -3.4561 0.312933
rclavicle -1.17581e-013 -1.23246e-014
rhumerus -23.1891 24.9061 -85.3343
rradius 101.329
rwrist -19.6467
rhand -26.9301 -22.0511
rfingers 7.12502
rthumb -0.352536 -52.0305
lclavicle -1.17581e-013 -1.23246e-014
lhumerus -91.8583 -24.3025 85.029
lradius 72.0182
lwrist 10.2136
lhand -40.023 -34.2817
lfingers 7.12502
lthumb -12.99 -4.7061
rfemur 29.2134 6.61496 31.4727
rtibia 32.7079
rfoot -15.7012 -0.32969
rtoes 1.36802
lfemur -25.2259 6.89654 -0.354544
ltibia 11.8553
lfoot -9.61275 9.86122
ltoes -5.33822
54
root 2.01416 17.0583 0.0792313 119.854 106.685 124.606
lowerback 11.9095 9.20503 12.5896
upperback 1.21798 14.0627 2.12144
thorax -2.84232 6.89823 -6.26805
lowerneck -24.4212 -6.29712 -2.07627
upperneck 29.0468 -9.43929 4.41702
head 14.4088 -3.455 0.347758
rclavicle 1.145e-013 -2.3059e-014
rhumerus -23.4308 25.9937 -85.373
rradius 102.766
rwrist -19.7524
rhand -27.6316 -22.5271
rfingers 7.12502
rthumb -1.03007 -52.5044
lclavicle 1.145e-013 -2.3059e-014
lhumerus -92.0997 -23.474 82.8162
lradius 72.0345
lwrist 9.46952
lhand -40.385 -33.9561
lfingers 7.12502
lthumb -13.3389 -4.40307
rfemur 29.4784 7.83831 34.0646
rtibia 36.0839
rfoot -15.7504 -0.939312
rtoes -0.114582
lfemur -23.8334 6.94051 2.14905
ltibia 7.6036
lfoot -11.0053 10.7768
ltoes -4.97723
55
root 2.62051 17.0291 0.0501925 121.426 106.575 125.6
lowerback 10.7749 9.35956 12.2967
upperback 0.914438 14.0624 1.88018
thorax -2.55207 6.90672 -6.1736
lowerneck -24.4149 -6.34186 -2.16258
upperneck 29.3846 -9.49895 4.46701
head 14.5683 -3.46484 0.370581
rclavicle 5.57591e-014 3.65764e-014
rhumerus -24.1797 26.6332 -85.8183
rradius 104.123
rwrist -19.507
rhand -27.4691 -22.6186
rfingers 7.12502
rthumb -0.873155 -52.5965
lclavicle 5.57591e-014 3.65764e-014
lhumerus -92.195 -22.7923 80.7657
lradius 71.8615
lwrist 9.35343
lhand -40.5484 -32.6902
lfingers 7.12502
lthumb -13.4964 -3.1475
rfemur 28.845 8.46831 33.637
rtibia 39.5006
rfoot -15.5374 -0.912592
rtoes -3.82027
lfemur -23.7882 6.30166 1.93903
ltibia 4.2252
lfoot -11.245 12.2661
ltoes -4.79782
56
root 3.22146 16.9641 0.0210594 119.604 108.23 123.553
lowerback 10.341 9.26569 14.1253
upperback 0.565454 14.1335 2.15417
thorax -2.32706 6.92552 -6.73537
lowerneck -24.4718 -6.30997 -2.24154
upperneck 29.7735 -9.48404 4.61
head 14.7695 -3.42363 0.443986
rclavicle 9.96905e-014 -5.80451e-014
rhumerus -25.4426 26.9891 -86.8091
rradius 105.359
rwrist -19.4027
rhand -26.8764 -22.3203
rfingers 7.12502
rthumb -0.300668 -52.2999
lclavicle 9.96905e-014 -5.80451e-014
lhumerus -92.2574 -22.1423 79.0387
lradius 71.7684
lwrist 9.85575
lhand -40.7451 -31.0103
lfingers 7.12502
lthumb -13.686 -1.48034
rfemur 28.2596 8.82106 35.3533
rtibia 43.5009
rfoot -14.7929 -0.452582
rtoes -2.6377
lfemur -24.0072 8.08315 3.46301
ltibia 4.10166
lfoot -12.7254 11.6149
ltoes -6.14574
57
root 3.81738 16.8826 -0.0113236 118.861 109.369 122.55
lowerback 9.68705 9.14044 15.1838
upperback 0.313807 14.0145 2.41435
thorax -2.09257 6.86391 -6.87866
lowerneck -24.4739 -6.09972 -2.1121
upperneck 30.0514 -9.21344 4.53871
head 14.8713 -3.29079 0.449699
rclavicle 2.10215e-014 7.95139e-016
rhumerus -27.0581 27.3509 -88.1286
rradius 106.388
rwrist -19.6245
rhand -26.1575 -22.0741
rfingers 7.12502
rthumb 0.393608 -52.0535
lclavicle 2.10215e-014 7.95139e-016
lhumerus -92.0756 -21.2222 77.7671
lradius 71.647
lwrist 10.6637
lhand -41.0784 -30.9719
lfingers 7.12502
lthumb -14.0071 -1.46383
rfemur 27.3705 9.19559 36.3657
rtibia 47.9238
rfoot -14.4492 0.138274
rtoes -0.638178
lfemur -24.5682 9.4257 4.29412
ltibia 4.79519
lfoot -12.6503 12.2864
ltoes -12.4144
58
root 4.40992 16.7826 -0.0476808 118.184 109.933 121.744
lowerback 9.02206 8.93062 15.6753
upperback 0.211954 13.6945 2.67873
thorax -1.86533 6.71649 -6.72926
lowerneck -24.3666 -5.85982 -2.03761
upperneck 30.1359 -8.81217 4.30474
head 14.8483 -3.14829 0.425884
rclavicle 5.68524e-014 -6.99722e-014
rhumerus -28.9763 27.5577 -89.5089
rradius 107.236
rwrist -19.901
rhand -25.6335 -21.1835
rfingers 7.12502
rthumb 0.899751 -51.1614
lclavicle 5.68524e-014 -6.99722e-014
lhumerus -91.5273 -20.2366 77.0479
lradius 71.3055
lwrist 11.4793
lhand -41.5009 -31.6486
lfingers 7.12502
lthumb -14.4143 -2.16914
rfemur 26.3778 9.35305 36.8317
rtibia 52.5085
rfoot -14.4017 0.489424
rtoes -0.579227
lfemur -24.9867 9.19886 4.77629
ltibia 6.25332
lfoot -16.543 12.9344
ltoes -2.73721
59
root 4.99422 16.6668 -0.0832616 117.605 110.043 121.261
lowerback 8.71458 8.62499 15.8182
upperback 0.157222 13.2634 2.83717
thorax -1.85832 6.50089 -6.59124
lowerneck -24.2475 -5.65453 -2.16359
upperneck 30.1201 -8.42591 4.20972
head 14.7996 -3.02005 0.488255
rclavicle -9.99638e-014 -5.1684e-014
rhumerus -31.1837 27.6672 -91.0637
rradius 107.774
rwrist -20.0928
rhand -26.4424 -21.7981
rfingers 7.12502
rthumb 0.118505 -51.7778
lclavicle -9.99638e-014 -5.1684e-014
lhumerus -90.7886 -19.4431 76.7882
lradius 70.8655
lwrist 12.1485
lhand -41.7592 -32.6676
lfingers 7.12502
lthumb -14.6632 -3.20604
rfemur 25.3801 9.32799 36.7864
rtibia 57.0288
rfoot -14.4046 0.622212
rtoes -2.03675
lfemur -25.1688 8.82073 4.63909
ltibia 8.40634
lfoot -14.2622 13.263
ltoes -0.519986
60
root 5.56301 16.549 -0.112619 116.975 110.1 121.079
lowerback 8.9403 8.18939 15.9085
upperback 0.144441 12.7537 2.96977
thorax -2.12272 6.22635 -6.55211
lowerneck -24.0659 -5.40716 -2.25247
upperneck 30.0785 -8.00915 4.1636
head 14.7257 -2.86841 0.571681
rclavicle 2.47487e-014 -3.10104e-014
rhumerus -33.6583 27.6909 -92.8723
rradius 107.867
rwrist -20.2806
rhand -26.578 -21.8604
rfingers 7.12502
rthumb -0.0124785 -51.8401
lclavicle 2.47487e-014 -3.10104e-014
lhumerus -89.8863 -18.7743 76.8018
lradius 70.4939
lwrist 12.5307
lhand -41.5624 -33.0792
lfingers 7.12502
lthumb -14.4736 -3.60401
rfemur 24.4353 9.09057 36.4664
rtibia 61.5909
rfoot -14.226 0.619088
rtoes -1.0988
lfemur -24.841 9.20636 4.20532
ltibia 11.0118
lfoot -13.7389 12.6083
ltoes -3.65067
61
root 6.12732 16.427 -0.135039 115.172 110.495 119.992
lowerback 9.45003 7.63294 16.4084
upperback 0.229666 12.1932 3.27963
thorax -2.41135 5.92807 -6.56642
lowerneck -24.0431 -5.18437 -2.38023
upperneck 30.1253 -7.58749 4.02908
head 14.7221 -2.72713 0.622185
rclavicle 2.96438e-014 6.36111e-015
rhumerus -36.263 27.3788 -94.5657
rradius 107.625
rwrist -20.4577
rhand -26.0211 -22.8261
rfingers 7.12502
rthumb 0.5254 -52.8051
lclavicle 2.96438e-014 6.36111e-015
lhumerus -88.6932 -18.2794 77.1883
lradius 70.1251
lwrist 12.3853
lhand -40.9414 -32.7518
lfingers 7.12502
lthumb -13.8752 -3.23464
rfemur 23.5607 8.40157 36.4846
rtibia 66.0527
rfoot -14.1911 -0.0997588
rtoes -0.0107295
lfemur -23.9154 9.50483 4.41555
ltibia 13.171
lfoot -11.9099 11.5603
ltoes -6.45371
62
root 6.68759 16.2976 -0.151005 113.235 110.57 118.956
lowerback 10.2388 7.06651 16.5293
upperback 0.326316 11.6381 3.54242
thorax -2.90579 5.61946 -6.47773
lowerneck -24.1724 -4.96161 -2.48454
upperneck 30.2801 -7.16133 3.84802
head 14.7964 -2.58183 0.647908
rclavicle -5.38582e-014 -8.0309e-014
rhumerus -39.0294 26.6437 -96.1107
rradius 107.102
rwrist -20.4971
rhand -25.7352 -23.8514
rfingers 7.12502
rthumb 0.801543 -53.8296
lclavicle -5.38582e-014 -8.0309e-014
lhumerus -87.3534 -18.0868 78.0848
lradius 69.9399
lwrist 11.7169
lhand -40.522 -31.5922
lfingers 7.12502
lthumb -13.471 -2.04783
rfemur 22.737 7.38649 36.0778
rtibia 70.1548
rfoot -14.5406 -0.893641
rtoes 0.121488
lfemur -22.6346 9.61452 4.34822
ltibia 14.9759
lfoot -8.558 10.6945
ltoes -10.2411
